# xmcd
#
# Track frame offsets:
#	150
#	18964
#	34367
#	55064
#	73185
#	96037
#	118143
#	134979
#	157040
#
# Disc length: 2368 seconds
#
# Revision: 0
# Processed by: cddbd v1.5.2PL0 Copyright (c) Steve Scherf et al.
# Submitted via: EasyCDDAExtractor 2010.6.0.0
#
DISCID=84093e09
DTITLE=腾格尔 - 云中的月亮
DYEAR=2010
DGENRE=Pop
TTITLE0=云中的月亮
TTITLE1=我不想说再见
TTITLE2=一个人走在旷野
TTITLE3=爱像雪花
TTITLE4=父亲和我
TTITLE5=蒙古马
TTITLE6=月亮挂在天
TTITLE7=爱你永远
TTITLE8=蒙古这一代
EXTD=
EXTT0=
EXTT1=
EXTT2=
EXTT3=
EXTT4=
EXTT5=
EXTT6=
EXTT7=
EXTT8=
PLAYORDER=
